/vscmnt/brussel_pixiu_data/_data_brussel/112/vsc11236/PredSimResults/SUBJ04opt3D/weighted/expIG/worker_02.mot
version=1
nRows=9
nColumns=50
inDegrees=yes
endheader
                time	         pelvis_tilt	         pelvis_list	     pelvis_rotation	           pelvis_tx	           pelvis_ty	           pelvis_tz	       hip_flexion_r	     hip_adduction_r	      hip_rotation_r	        knee_angle_r	       ankle_angle_r	         mtp_angle_r	       hip_flexion_l	     hip_adduction_l	      hip_rotation_l	        knee_angle_l	       ankle_angle_l	         mtp_angle_l	    lumbar_extension	      lumbar_bending	     lumbar_rotation	 ercspn_r/activation	 intobl_r/activation	 extobl_r/activation	    abd_r/activation	    add_r/activation	hamstrings_r/activation	bifemsh_r/activation	glut_max_r/activation	iliopsoas_r/activation	rect_fem_r/activation	  vasti_r/activation	gastroc_r/activation	 soleus_r/activation	tib_ant_r/activation	 ercspn_l/activation	 intobl_l/activation	 extobl_l/activation	    abd_l/activation	    add_l/activation	hamstrings_l/activation	bifemsh_l/activation	glut_max_l/activation	iliopsoas_l/activation	rect_fem_l/activation	  vasti_l/activation	gastroc_l/activation	 soleus_l/activation	tib_ant_l/activation	
          0.67945789	         -1.68527989	         -0.33569913	         -8.58650865	          0.59112837	          0.88292128	          0.01099833	        -12.44725609	         -0.36157588	         -7.87817821	         -7.44633999	         13.60534431	         19.34642180	         28.42918903	         -3.03259135	        -10.28749021	        -11.65769188	          3.90849267	          0.23494512	        -13.69994197	          3.75650926	          7.77998513	          0.02529961	          0.00999999	          0.00999999	          0.06357132	          0.00999999	          0.02449810	          0.22718324	          0.01621119	          0.01504266	          0.00999999	          0.00999999	          0.25235723	          0.24977666	          0.00999999	          0.03774245	          0.22435356	          0.01878752	          0.00999999	          0.32108493	          0.06392955	          0.02673886	          0.01471606	          0.16124692	          0.03547036	          0.04009344	          0.00999999	          0.00999999	          0.31763076	
          0.69304705	         -1.78433240	         -0.29569642	         -8.33917526	          0.60655968	          0.88062332	          0.01057789	        -13.11649177	         -0.50677884	         -8.56068991	         -7.99366343	         13.39629480	         20.76617256	         28.31683410	         -2.87198480	        -10.37774434	        -13.03156746	          3.73302819	          0.22272423	        -13.16722561	          3.08626312	          7.83856735	          0.02556715	          0.00999999	          0.00999999	          0.05183208	          0.00999999	          0.04345576	          0.18523101	          0.01427787	          0.01226484	          0.00999999	          0.00999999	          0.23150573	          0.25008036	          0.00999999	          0.03077283	          0.22723160	          0.01531817	          0.00999999	          0.26179258	          0.06925685	          0.02180121	          0.03412265	          0.13147066	          0.02892031	          0.03268969	          0.01226485	          0.01323747	          0.34148972	
          0.70663621	         -1.86830783	         -0.18672926	         -8.04385127	          0.62231741	          0.87854979	          0.01006964	        -13.70826614	         -0.73348034	         -9.28958114	         -8.73981396	         13.10210765	         22.23813512	         28.11768155	         -2.66651757	        -10.50319406	        -14.24356477	          3.32571753	          0.21520075	        -12.60740195	          2.31741279	          7.86573240	          0.02525438	          0.00999999	          0.00999999	          0.04226064	          0.00999999	          0.03543111	          0.15102579	          0.01164128	          0.00999999	          0.00999999	          0.00999999	          0.18875530	          0.23989965	          0.00999999	          0.02509025	          0.19033653	          0.01248948	          0.02169851	          0.21876750	          0.07495659	          0.01777534	          0.02782148	          0.10719296	          0.02357981	          0.08784787	          0.00999999	          0.01079300	          0.36794060	
          0.72022537	         -1.93779920	         -0.03123648	         -7.69884188	          0.63824904	          0.87688700	          0.00944283	        -14.16798147	         -1.02801375	        -10.06078615	         -9.76403717	         12.67505665	         23.75847272	         27.85792331	         -2.42747017	        -10.75755778	        -15.35800943	          2.91097468	          0.19472928	        -12.04680841	          1.48145982	          7.85789084	          0.03415852	          0.00999999	          0.00999999	          0.03445668	          0.00999999	          0.02888832	          0.12313699	          0.00999999	          0.00999999	          0.00999999	          0.00999999	          0.15389928	          0.22496686	          0.00999999	          0.02191294	          0.15518851	          0.01018314	          0.03858172	          0.19651016	          0.07611953	          0.01449290	          0.02268390	          0.08739844	          0.01922551	          0.15874352	          0.00999999	          0.00999999	          0.39250309	
          0.73381453	         -1.99325054	          0.16663022	         -7.31561153	          0.65424026	          0.87582660	          0.00868443	        -14.43626576	         -1.40262616	        -10.86022522	        -11.14923676	         12.05656479	         25.34169965	         27.50114374	         -2.14903961	        -11.12461856	        -16.35341771	          2.68601479	          0.17131085	        -11.50155163	          0.59137883	          7.81508121	          0.05950425	          0.00999999	          0.00999999	          0.02809383	          0.00999999	          0.03759198	          0.10039821	          0.01154566	          0.00999999	          0.00999999	          0.00999999	          0.12547985	          0.19001930	          0.00999999	          0.02817809	          0.12653101	          0.00999999	          0.07122398	          0.17136994	          0.07404995	          0.01181661	          0.02520665	          0.07125922	          0.01567528	          0.20802545	          0.00999999	          0.00999999	          0.39745306	
          0.74740368	         -2.03574984	          0.40203449	         -6.90912036	          0.67013158	          0.87554939	          0.00778964	        -14.44096123	         -1.87289102	        -11.68394594	        -12.99537933	         11.20082556	         26.97884365	         27.04017634	         -1.81811365	        -11.52031884	        -17.21195350	          2.69635385	          0.15201719	        -10.98939566	         -0.33978565	          7.74221492	          0.08554722	          0.00999999	          0.00999999	          0.02290595	          0.00999999	          0.05308469	          0.08185842	          0.02039059	          0.00999999	          0.00999999	          0.00999999	          0.10230843	          0.15492986	          0.00999999	          0.03261073	          0.10316548	          0.00999999	          0.09225314	          0.15389390	          0.07477986	          0.00999999	          0.03143221	          0.05810032	          0.01278064	          0.22792671	          0.00999999	          0.00999999	          0.38826256	
          0.76099284	         -2.06564358	          0.65944484	         -6.49292011	          0.68580485	          0.87610429	          0.00676266	        -14.13534174	         -2.44217099	        -12.53535713	        -15.36304699	         10.06674529	         28.64384560	         26.48048442	         -1.43431953	        -11.85868228	        -17.92679876	          2.91695912	          0.15061884	        -10.52251229	         -1.28815491	          7.64550627	          0.09103749	          0.00999999	          0.00999999	          0.01867608	          0.05732905	          0.08650897	          0.06674224	          0.02151574	          0.00999999	          0.00999999	          0.01161355	          0.08341590	          0.12632012	          0.00999999	          0.03228367	          0.08411468	          0.00999999	          0.10668367	          0.14987248	          0.07648578	          0.00999999	          0.02562788	          0.04737137	          0.01042054	          0.24142677	          0.00999999	          0.00999999	          0.35694221	
          0.77458200	         -2.08332489	          0.91329842	         -6.07865685	          0.70117888	          0.87743630	          0.00562213	        -13.49597791	         -3.10183553	        -13.40017082	        -18.27359324	          8.62447510	         30.26053402	         25.81074242	         -1.00809120	        -12.06824434	        -18.45730237	          3.28925559	          0.20333681	        -10.10979940	         -2.22188632	          7.52959116	          0.07936020	          0.00999999	          0.00999999	          0.01522731	          0.14658683	          0.10173643	          0.05441745	          0.01754259	          0.00999999	          0.00999999	          0.00999999	          0.06801211	          0.10299353	          0.00999999	          0.03154399	          0.06858186	          0.00999999	          0.11187077	          0.15873110	          0.08158232	          0.00999999	          0.02755284	          0.03862365	          0.00999999	          0.24316799	          0.00999999	          0.00999999	          0.32349309	
          0.78817116	         -2.08918498	          1.12693968	         -5.67030496	          0.71619018	          0.87942351	          0.00439973	        -12.51547230	         -3.82812249	        -14.26716691	        -21.71939673	          6.86423848	         31.67458760	         25.01549582	         -0.57678757	        -12.14718893	        -18.74824049	          3.66211985	          0.32764025	         -9.75979348	         -3.09974557	          7.39143065	          0.07135029	          0.01504266	          0.00999999	          0.01241540	          0.16226340	          0.10571629	          0.04436859	          0.01430313	          0.00999999	          0.00999999	          0.00999999	          0.05545282	          0.08397449	          0.00999999	          0.02572218	          0.05591736	          0.00999999	          0.11390735	          0.15899040	          0.08682660	          0.00999999	          0.02246487	          0.03149131	          0.00999999	          0.23205681	          0.00999999	          0.00999999	          0.29319859	
